<svg width="82" height="54" viewBox="0 0 82 54" fill="none" xmlns="http://www.w3.org/2000/svg">
<g clip-path="url(#clip0_94_23)">
<g filter="url(#filter0_d_94_23)">
<path d="M36.9517 22.3187C39.2447 23.778 42.1752 23.778 44.4682 22.3187L57.617 13.9509C64.6741 9.45983 72.2399 18.8913 66.325 24.8062L45.6597 45.4715C42.926 48.2052 38.4939 48.2052 35.7602 45.4715L15.0949 24.8062C9.18 18.8913 16.7458 9.45983 23.8029 13.9509L36.9517 22.3187Z" fill="#CE0025"/>
<path d="M44.7367 22.7405L57.8854 14.3727C64.4384 10.2024 71.4639 18.9602 65.9714 24.4527L45.3062 45.118C42.7677 47.6564 38.6522 47.6564 36.1138 45.118L15.4485 24.4527C9.95606 18.9602 16.9815 10.2024 23.5345 14.3727L36.6832 22.7405C39.1401 24.304 42.2799 24.3041 44.7367 22.7405Z" stroke="white"/>
</g>
<path d="M21.2095 23.5033V8.14186L24.7935 23.8219L25.7634 23.8414L30.7446 5.48982L33.3753 13.8604L33.3977 13.9316L33.44 13.9932L40.2971 23.9932L40.7095 24.5946L41.1218 23.9932L47.979 13.9932L48.025 13.9261L48.0474 13.8478L50.3984 5.61938L55.0824 23.835H56.0509L60.2095 7.66259V23.5033L50.6077 33.1051L40.9279 28.4036L40.7095 28.2975L40.491 28.4036L30.8113 33.1051L21.2095 23.5033Z" fill="#FFF627" stroke="black"/>
<g filter="url(#filter1_d_94_23)">
<path d="M40.8343 14.4633L44.1776 15.1786L41.2186 15.7234L40.6458 18.7104L40.3695 15.7503L37.1777 15.2423L40.8343 14.4633L37.2414 8.24229L40.7095 11.7104L44.2413 8.17859L40.8343 14.4633Z" fill="#1A23FF"/>
</g>
</g>
<defs>
<filter id="filter0_d_94_23" x="8.96753" y="12.7772" width="63.4849" height="42.7445" filterUnits="userSpaceOnUse" color-interpolation-filters="sRGB">
<feFlood flood-opacity="0" result="BackgroundImageFix"/>
<feColorMatrix in="SourceAlpha" type="matrix" values="0 0 0 0 0 0 0 0 0 0 0 0 0 0 0 0 0 0 127 0" result="hardAlpha"/>
<feOffset dy="4"/>
<feGaussianBlur stdDeviation="2"/>
<feComposite in2="hardAlpha" operator="out"/>
<feColorMatrix type="matrix" values="0 0 0 0 0 0 0 0 0 0 0 0 0 0 0 0 0 0 0.25 0"/>
<feBlend mode="normal" in2="BackgroundImageFix" result="effect1_dropShadow_94_23"/>
<feBlend mode="normal" in="SourceGraphic" in2="effect1_dropShadow_94_23" result="shape"/>
</filter>
<filter id="filter1_d_94_23" x="35.4777" y="7.47859" width="10.4635" height="13.9319" filterUnits="userSpaceOnUse" color-interpolation-filters="sRGB">
<feFlood flood-opacity="0" result="BackgroundImageFix"/>
<feColorMatrix in="SourceAlpha" type="matrix" values="0 0 0 0 0 0 0 0 0 0 0 0 0 0 0 0 0 0 127 0" result="hardAlpha"/>
<feOffset dy="1"/>
<feGaussianBlur stdDeviation="0.85"/>
<feComposite in2="hardAlpha" operator="out"/>
<feColorMatrix type="matrix" values="0 0 0 0 0 0 0 0 0 0.94 0 0 0 0 1 0 0 0 1 0"/>
<feBlend mode="normal" in2="BackgroundImageFix" result="effect1_dropShadow_94_23"/>
<feBlend mode="normal" in="SourceGraphic" in2="effect1_dropShadow_94_23" result="shape"/>
</filter>
<clipPath id="clip0_94_23">
<rect width="82" height="54" fill="white" transform="translate(-0.000732422 -0.000244141)"/>
</clipPath>
</defs>
</svg>
